# Blender v2.78 (sub 0) OBJ File: ''
# www.blender.org
mtllib board.mtl
o Cube
v 4.441363 -0.192084 -4.455753
v 4.441363 -0.192084 4.455753
v -4.441363 -0.192084 4.455752
v -4.441361 -0.192084 -4.455755
v 4.441365 0.192084 -4.455751
v 4.441360 0.192084 4.455756
v -4.441364 0.192084 4.455752
v -4.441362 0.192084 -4.455753
vn 0.0000 -1.0000 -0.0000
vn 1.0000 0.0000 0.0000
vn -0.0000 -0.0000 1.0000
vn -1.0000 -0.0000 -0.0000
vn 0.0000 0.0000 -1.0000
usemtl Material
s off
f 1//1 2//1 3//1 4//1
f 1//2 5//2 6//2 2//2
f 2//3 6//3 7//3 3//3
f 3//4 7//4 8//4 4//4
f 5//5 1//5 4//5 8//5
