# Blender v2.77 (sub 0) OBJ File: 'saturn.blend'
# www.blender.org
mtllib uranusring.mtl
o Circle
v 2.293756 1.824279 -6.227078
v 2.293756 2.606591 -6.150027
v 2.293756 3.358840 -5.921835
v 2.293756 4.052115 -5.551271
v 2.293756 4.659777 -5.052576
v 2.293756 5.158472 -4.444914
v 2.293756 5.529036 -3.751638
v 2.293756 5.757228 -2.999390
v 2.293756 5.834279 -2.217078
v 2.293756 5.757228 -1.434766
v 2.293756 5.529036 -0.682518
v 2.293756 5.158472 0.010759
v 2.293756 4.659777 0.618421
v 2.293756 4.052115 1.117116
v 2.293756 3.358839 1.487680
v 2.293756 2.606590 1.715872
v 2.293756 1.824277 1.792922
v 2.293756 1.041965 1.715871
v 2.293756 0.289716 1.487679
v 2.293756 -0.403560 1.117114
v 2.293755 -1.011222 0.618419
v 2.293755 -1.509916 0.010757
v 2.293755 -1.880480 -0.682520
v 2.293755 -2.108671 -1.434769
v 2.293755 -2.185721 -2.217082
v 2.293755 -2.108670 -2.999394
v 2.293755 -1.880477 -3.751643
v 2.293755 -1.509912 -4.444919
v 2.293755 -1.011216 -5.052580
v 2.293756 -0.403554 -5.551274
v 2.293756 0.289724 -5.921837
v 2.293756 1.041973 -6.150028
v 2.779628 1.824279 -6.227078
v 2.779628 2.606591 -6.150027
v 2.779628 3.358840 -5.921835
v 2.779628 4.052115 -5.551271
v 2.779629 4.659777 -5.052576
v 2.779629 5.158472 -4.444914
v 2.779629 5.529036 -3.751638
v 2.779629 5.757228 -2.999390
v 2.779629 5.834279 -2.217078
v 2.779629 5.757228 -1.434766
v 2.779629 5.529036 -0.682518
v 2.779629 5.158472 0.010759
v 2.779629 4.659777 0.618421
v 2.779628 4.052115 1.117116
v 2.779628 3.358839 1.487680
v 2.779628 2.606590 1.715872
v 2.779628 1.824277 1.792922
v 2.779628 1.041965 1.715871
v 2.779628 0.289716 1.487679
v 2.779628 -0.403560 1.117114
v 2.779628 -1.011222 0.618419
v 2.779628 -1.509916 0.010757
v 2.779628 -1.880480 -0.682520
v 2.779628 -2.108671 -1.434769
v 2.779628 -2.185721 -2.217082
v 2.779628 -2.108670 -2.999394
v 2.779628 -1.880477 -3.751643
v 2.779628 -1.509912 -4.444919
v 2.779628 -1.011216 -5.052580
v 2.779628 -0.403554 -5.551274
v 2.779628 0.289724 -5.921837
v 2.779628 1.041973 -6.150028
vt 0.9434 0.2614
vt 0.8445 0.2173
vt 0.8887 0.1800
vt 0.2672 0.9292
vt 0.3716 0.9081
vt 0.3576 0.9630
vt 0.4500 0.0001
vt 0.3705 0.0747
vt 0.3532 0.0192
vt 0.7828 0.1560
vt 0.8189 0.1107
vt 0.4564 0.9216
vt 0.4523 0.9787
vt 0.2898 0.1078
vt 0.2620 0.0568
vt 0.5439 0.9217
vt 0.5490 0.9789
vt 0.2172 0.1560
vt 0.1800 0.1115
vt 0.6289 0.9080
vt 0.6443 0.9628
vt 0.1555 0.2173
vt 0.1104 0.1810
vt 0.7088 0.8779
vt 0.7347 0.9285
vt 0.1072 0.2893
vt 0.0560 0.2627
vt 0.7809 0.8324
vt 0.8165 0.8768
vt 0.0740 0.3693
vt 0.0187 0.3533
vt 0.8426 0.7733
vt 0.8864 0.8098
vt 0.0574 0.4541
vt 0.0001 0.4493
vt 0.8913 0.7029
vt 0.9416 0.7300
vt 0.0578 0.5402
vt 0.0009 0.5469
vt 0.9798 0.6406
vt 0.9250 0.6241
vt 0.0753 0.6244
vt 0.0210 0.6422
vt 0.9424 0.5399
vt 0.9995 0.5453
vt 0.1092 0.7032
vt 0.0595 0.7314
vt 0.7102 0.1079
vt 0.7367 0.0564
vt 0.9428 0.4538
vt 0.9999 0.4478
vt 0.1579 0.7735
vt 0.1150 0.8111
vt 0.6294 0.0748
vt 0.6455 0.0190
vt 0.9261 0.3692
vt 0.9810 0.3519
vt 0.2197 0.8326
vt 0.1852 0.8779
vt 0.5437 0.0580
vt 0.5487 0.0001
vt 0.8929 0.2892
vt 0.2918 0.8780
vt 0.4562 0.0579
vn 0.0000 0.2903 0.9569
vn 0.0000 0.2903 -0.9569
vn 0.0000 -0.7730 0.6344
vn 0.0000 0.0980 0.9952
vn 0.0000 0.4714 -0.8819
vn 0.0000 -0.8819 0.4714
vn 0.0000 0.6344 -0.7730
vn 0.0000 -0.9569 0.2903
vn 0.0000 0.7730 -0.6344
vn 0.0000 -0.9952 0.0980
vn 0.0000 0.8819 -0.4714
vn 0.0000 -0.9952 -0.0980
vn 0.0000 0.9569 -0.2903
vn 0.0000 -0.9569 -0.2903
vn 0.0000 0.9952 -0.0980
vn 0.0000 -0.8819 -0.4714
vn 0.0000 0.9952 0.0980
vn 0.0000 -0.7730 -0.6344
vn 0.0000 0.9569 0.2903
vn 0.0000 -0.6344 -0.7730
vn 0.0000 0.8819 0.4714
vn 0.0000 -0.4714 -0.8819
vn 0.0000 -0.0980 0.9952
vn 0.0000 0.7730 0.6344
vn 0.0000 -0.2903 -0.9569
vn 0.0000 -0.2903 0.9569
vn 0.0000 0.6344 0.7730
vn 0.0000 -0.0980 -0.9952
vn 0.0000 -0.4714 0.8819
vn 0.0000 0.4714 0.8819
vn 0.0000 0.0980 -0.9952
vn 0.0000 -0.6344 0.7730
usemtl None
s off
f 31/1/1 64/2/1 32/3/1
f 18/4/2 51/5/2 19/6/2
f 5/7/3 38/8/3 6/9/3
f 32/3/4 33/10/4 1/11/4
f 19/6/5 52/12/5 20/13/5
f 6/9/6 39/14/6 7/15/6
f 20/13/7 53/16/7 21/17/7
f 7/15/8 40/18/8 8/19/8
f 21/17/9 54/20/9 22/21/9
f 8/19/10 41/22/10 9/23/10
f 22/21/11 55/24/11 23/25/11
f 9/23/12 42/26/12 10/27/12
f 23/25/13 56/28/13 24/29/13
f 10/27/14 43/30/14 11/31/14
f 24/29/15 57/32/15 25/33/15
f 11/31/16 44/34/16 12/35/16
f 25/33/17 58/36/17 26/37/17
f 12/35/18 45/38/18 13/39/18
f 27/40/19 58/36/19 59/41/19
f 13/39/20 46/42/20 14/43/20
f 27/40/21 60/44/21 28/45/21
f 14/43/22 47/46/22 15/47/22
f 1/11/23 34/48/23 2/49/23
f 28/45/24 61/50/24 29/51/24
f 15/47/25 48/52/25 16/53/25
f 2/49/26 35/54/26 3/55/26
f 29/51/27 62/56/27 30/57/27
f 16/53/28 49/58/28 17/59/28
f 3/55/29 36/60/29 4/61/29
f 30/57/30 63/62/30 31/1/30
f 17/59/31 50/63/31 18/4/31
f 5/7/32 36/60/32 37/64/32
f 31/1/1 63/62/1 64/2/1
f 18/4/2 50/63/2 51/5/2
f 5/7/3 37/64/3 38/8/3
f 32/3/4 64/2/4 33/10/4
f 19/6/5 51/5/5 52/12/5
f 6/9/6 38/8/6 39/14/6
f 20/13/7 52/12/7 53/16/7
f 7/15/8 39/14/8 40/18/8
f 21/17/9 53/16/9 54/20/9
f 8/19/10 40/18/10 41/22/10
f 22/21/11 54/20/11 55/24/11
f 9/23/12 41/22/12 42/26/12
f 23/25/13 55/24/13 56/28/13
f 10/27/14 42/26/14 43/30/14
f 24/29/15 56/28/15 57/32/15
f 11/31/16 43/30/16 44/34/16
f 25/33/17 57/32/17 58/36/17
f 12/35/18 44/34/18 45/38/18
f 27/40/19 26/37/19 58/36/19
f 13/39/20 45/38/20 46/42/20
f 27/40/21 59/41/21 60/44/21
f 14/43/22 46/42/22 47/46/22
f 1/11/23 33/10/23 34/48/23
f 28/45/24 60/44/24 61/50/24
f 15/47/25 47/46/25 48/52/25
f 2/49/26 34/48/26 35/54/26
f 29/51/27 61/50/27 62/56/27
f 16/53/28 48/52/28 49/58/28
f 3/55/29 35/54/29 36/60/29
f 30/57/30 62/56/30 63/62/30
f 17/59/31 49/58/31 50/63/31
f 5/7/32 4/61/32 36/60/32
