# Blender v2.78 (sub 0) OBJ File: 'paddle.blend'
# www.blender.org
mtllib paddle.mtl
o Cylinder
v 0.191073 -1.000000 -3.028908
v 0.191073 1.000000 -3.028908
v 0.265207 -1.000000 -2.989902
v 0.265207 1.000000 -2.989902
v 0.336493 -1.000000 -2.874383
v 0.336493 1.000000 -2.874383
v 0.402190 -1.000000 -2.686791
v 0.402190 1.000000 -2.686791
v 0.459773 -1.000000 -2.434334
v 0.459773 1.000000 -2.434334
v 0.507031 -1.000000 -2.126715
v 0.507031 1.000000 -2.126715
v 0.542147 -1.000000 -1.775755
v 0.542147 1.000000 -1.775755
v 0.563771 -1.000000 -1.394941
v 0.563771 1.000000 -1.394941
v 0.571073 -1.000000 -0.998908
v 0.571073 1.000000 -0.998908
v 0.563771 -1.000000 -0.602874
v 0.563771 1.000000 -0.602874
v 0.542147 -1.000000 -0.222061
v 0.542147 1.000000 -0.222061
v 0.507031 -1.000000 0.128900
v 0.507031 1.000000 0.128900
v 0.459773 -1.000000 0.436519
v 0.459773 1.000000 0.436519
v 0.402190 -1.000000 0.688976
v 0.402190 1.000000 0.688976
v 0.336493 -1.000000 0.876568
v 0.336493 1.000000 0.876568
v 0.265207 -1.000000 0.992087
v 0.265207 1.000000 0.992087
v 0.191073 -1.000000 1.031092
v 0.191073 1.000000 1.031092
v 0.116938 -1.000000 0.992086
v 0.116938 1.000000 0.992086
v 0.045653 -1.000000 0.876567
v 0.045653 1.000000 0.876567
v -0.020044 -1.000000 0.688975
v -0.020044 1.000000 0.688975
v -0.077628 -1.000000 0.436518
v -0.077628 1.000000 0.436518
v -0.124886 -1.000000 0.128899
v -0.124886 1.000000 0.128899
v -0.160001 -1.000000 -0.222062
v -0.160001 1.000000 -0.222062
v -0.181626 -1.000000 -0.602876
v -0.181626 1.000000 -0.602876
v -0.188927 -1.000000 -0.998910
v -0.188927 1.000000 -0.998910
v -0.181625 -1.000000 -1.394943
v -0.181625 1.000000 -1.394943
v -0.160001 -1.000000 -1.775757
v -0.160001 1.000000 -1.775757
v -0.124885 -1.000000 -2.126717
v -0.124885 1.000000 -2.126717
v -0.077627 -1.000000 -2.434336
v -0.077627 1.000000 -2.434336
v -0.020043 -1.000000 -2.686792
v -0.020043 1.000000 -2.686792
v 0.045654 -1.000000 -2.874384
v 0.045654 1.000000 -2.874384
v 0.116939 -1.000000 -2.989902
v 0.116939 1.000000 -2.989902
vt 0.5955 0.3344
vt 0.5547 0.0000
vt 0.5955 0.0000
vt 0.5547 0.3344
vt 0.5147 0.0000
vt 0.5147 0.3344
vt 0.4770 0.0000
vt 0.4770 0.3344
vt 0.4431 0.0000
vt 0.4431 0.3344
vt 0.4142 0.0000
vt 0.0000 0.6656
vt 0.0339 1.0000
vt 0.0000 1.0000
vt 0.0339 0.6656
vt 0.0716 1.0000
vt 0.0716 0.6656
vt 0.1116 1.0000
vt 0.1116 0.6656
vt 0.1524 1.0000
vt 0.1524 0.6656
vt 0.1924 1.0000
vt 0.1924 0.6656
vt 0.2301 1.0000
vt 0.2301 0.6656
vt 0.2640 1.0000
vt 0.7071 0.3344
vt 0.7410 0.6688
vt 0.7071 0.6688
vt 0.7410 0.3344
vt 0.7787 0.6688
vt 0.7787 0.3344
vt 0.8187 0.6688
vt 0.8187 0.3344
vt 0.8595 0.6688
vt 0.8595 0.3344
vt 0.8995 0.6688
vt 0.8995 0.3344
vt 0.9372 0.6688
vt 0.9372 0.3344
vt 0.9712 0.6688
vt 0.9712 0.3344
vt 1.0000 0.6688
vt 0.7071 0.6688
vt 0.6732 0.3344
vt 0.7071 0.3344
vt 0.6732 0.6688
vt 0.6355 0.3344
vt 0.6355 0.6688
vt 0.5955 0.3344
vt 0.5955 0.6688
vt 0.5547 0.3344
vt 0.5547 0.6688
vt 0.5147 0.3344
vt 0.5147 0.6688
vt 0.4770 0.3344
vt 0.4770 0.6688
vt 0.4431 0.3344
vt 0.4431 0.6688
vt 0.4142 0.3344
vt 0.7360 0.3344
vt 0.7071 0.0000
vt 0.7360 0.0000
vt 0.7071 0.3344
vt 0.6732 0.0000
vt 0.0236 0.0876
vt 0.1867 0.3328
vt 0.1467 0.3264
vt 0.6732 0.3344
vt 0.6355 0.0000
vt 0.6355 0.3344
vt 0.1090 0.6467
vt 0.4063 0.4507
vt 0.1467 0.6592
vt 0.4142 0.3344
vt 0.2640 0.6656
vt 1.0000 0.3344
vt 0.4142 0.6688
vt 0.3391 0.0371
vt 0.3680 0.0603
vt 0.4142 0.1500
vt 0.3906 0.0876
vt 0.4063 0.1179
vt 0.4142 0.1828
vt 0.4063 0.2149
vt 0.3906 0.2452
vt 0.2675 0.0064
vt 0.3680 0.2725
vt 0.3391 0.2956
vt 0.1867 0.0000
vt 0.3052 0.3139
vt 0.2675 0.3264
vt 0.1090 0.0189
vt 0.2275 0.3328
vt 0.0462 0.0603
vt 0.1090 0.3139
vt 0.0080 0.1179
vt 0.0751 0.2956
vt 0.0462 0.2725
vt 0.0000 0.1828
vt 0.0236 0.2452
vt 0.0080 0.2149
vt 0.0000 0.1500
vt 0.0751 0.0371
vt 0.1467 0.0064
vt 0.2275 0.0000
vt 0.3052 0.0189
vt 0.0462 0.3931
vt 0.0751 0.3699
vt 0.1090 0.3517
vt 0.1467 0.3392
vt 0.1867 0.3328
vt 0.2275 0.3328
vt 0.0000 0.4828
vt 0.2675 0.3392
vt 0.0080 0.5477
vt 0.0000 0.5156
vt 0.3391 0.3699
vt 0.3680 0.3931
vt 0.0462 0.6053
vt 0.3906 0.4204
vt 0.0751 0.6284
vt 0.4142 0.4828
vt 0.4142 0.5156
vt 0.1867 0.6656
vt 0.4063 0.5477
vt 0.3906 0.5780
vt 0.2275 0.6656
vt 0.3680 0.6053
vt 0.3391 0.6284
vt 0.3052 0.6467
vt 0.2675 0.6592
vt 0.0236 0.5780
vt 0.3052 0.3517
vt 0.0080 0.4507
vt 0.0236 0.4204
vn 0.4656 0.0000 -0.8850
vn 0.8510 0.0000 -0.5251
vn 0.9438 0.0000 -0.3305
vn 0.9750 0.0000 -0.2224
vn 0.9884 0.0000 -0.1518
vn 0.9950 0.0000 -0.0996
vn 0.9984 0.0000 -0.0567
vn 0.9998 0.0000 -0.0184
vn 0.9998 0.0000 0.0184
vn 0.9984 0.0000 0.0567
vn 0.9950 0.0000 0.0996
vn 0.9884 0.0000 0.1518
vn 0.9750 0.0000 0.2224
vn 0.9438 0.0000 0.3305
vn 0.8510 0.0000 0.5251
vn 0.4656 0.0000 0.8850
vn -0.4656 0.0000 0.8850
vn -0.8510 0.0000 0.5251
vn -0.9438 0.0000 0.3305
vn -0.9750 0.0000 0.2224
vn -0.9884 0.0000 0.1518
vn -0.9950 0.0000 0.0996
vn -0.9984 0.0000 0.0567
vn -0.9998 0.0000 0.0184
vn -0.9998 0.0000 -0.0184
vn -0.9984 0.0000 -0.0567
vn -0.9950 0.0000 -0.0996
vn -0.9884 0.0000 -0.1518
vn -0.9750 0.0000 -0.2224
vn -0.9438 0.0000 -0.3305
vn 0.0000 1.0000 0.0000
vn -0.8510 0.0000 -0.5252
vn -0.4656 0.0000 -0.8850
vn 0.0000 -1.0000 0.0000
usemtl None
s off
f 2/1/1 3/2/1 1/3/1
f 4/4/2 5/5/2 3/2/2
f 6/6/3 7/7/3 5/5/3
f 8/8/4 9/9/4 7/7/4
f 10/10/5 11/11/5 9/9/5
f 12/12/6 13/13/6 11/14/6
f 14/15/7 15/16/7 13/13/7
f 16/17/8 17/18/8 15/16/8
f 18/19/9 19/20/9 17/18/9
f 20/21/10 21/22/10 19/20/10
f 22/23/11 23/24/11 21/22/11
f 24/25/12 25/26/12 23/24/12
f 26/27/13 27/28/13 25/29/13
f 28/30/14 29/31/14 27/28/14
f 30/32/15 31/33/15 29/31/15
f 32/34/16 33/35/16 31/33/16
f 34/36/17 35/37/17 33/35/17
f 36/38/18 37/39/18 35/37/18
f 38/40/19 39/41/19 37/39/19
f 40/42/20 41/43/20 39/41/20
f 42/44/21 43/45/21 41/46/21
f 44/47/22 45/48/22 43/45/22
f 46/49/23 47/50/23 45/48/23
f 48/51/24 49/52/24 47/50/24
f 50/53/25 51/54/25 49/52/25
f 52/55/26 53/56/26 51/54/26
f 54/57/27 55/58/27 53/56/27
f 56/59/28 57/60/28 55/58/28
f 58/61/29 59/62/29 57/63/29
f 60/64/30 61/65/30 59/62/30
f 24/66/31 44/67/31 42/68/31
f 62/69/32 63/70/32 61/65/32
f 64/71/33 1/3/33 63/70/33
f 45/72/34 21/73/34 43/74/34
f 2/1/1 4/4/1 3/2/1
f 4/4/2 6/6/2 5/5/2
f 6/6/3 8/8/3 7/7/3
f 8/8/4 10/10/4 9/9/4
f 10/10/5 12/75/5 11/11/5
f 12/12/6 14/15/6 13/13/6
f 14/15/7 16/17/7 15/16/7
f 16/17/8 18/19/8 17/18/8
f 18/19/9 20/21/9 19/20/9
f 20/21/10 22/23/10 21/22/10
f 22/23/11 24/25/11 23/24/11
f 24/25/12 26/76/12 25/26/12
f 26/27/13 28/30/13 27/28/13
f 28/30/14 30/32/14 29/31/14
f 30/32/15 32/34/15 31/33/15
f 32/34/16 34/36/16 33/35/16
f 34/36/17 36/38/17 35/37/17
f 36/38/18 38/40/18 37/39/18
f 38/40/19 40/42/19 39/41/19
f 40/42/20 42/77/20 41/43/20
f 42/44/21 44/47/21 43/45/21
f 44/47/22 46/49/22 45/48/22
f 46/49/23 48/51/23 47/50/23
f 48/51/24 50/53/24 49/52/24
f 50/53/25 52/55/25 51/54/25
f 52/55/26 54/57/26 53/56/26
f 54/57/27 56/59/27 55/58/27
f 56/59/28 58/78/28 57/60/28
f 58/61/29 60/64/29 59/62/29
f 60/64/30 62/69/30 61/65/30
f 6/79/31 4/80/31 62/81/31
f 2/82/31 64/83/31 4/80/31
f 62/81/31 60/84/31 6/79/31
f 58/85/31 56/86/31 10/87/31
f 54/88/31 52/89/31 14/90/31
f 50/91/31 48/92/31 18/93/31
f 46/94/31 44/67/31 22/95/31
f 42/68/31 40/96/31 26/97/31
f 38/98/31 36/99/31 30/100/31
f 34/101/31 32/102/31 36/99/31
f 30/100/31 28/103/31 38/98/31
f 26/97/31 24/66/31 42/68/31
f 22/95/31 20/104/31 46/94/31
f 18/93/31 16/105/31 50/91/31
f 14/90/31 12/106/31 54/88/31
f 10/87/31 8/107/31 58/85/31
f 4/80/31 64/83/31 62/81/31
f 60/84/31 8/107/31 6/79/31
f 52/89/31 50/91/31 16/105/31
f 44/67/31 24/66/31 22/95/31
f 36/99/31 32/102/31 30/100/31
f 28/103/31 40/96/31 38/98/31
f 20/104/31 18/93/31 48/92/31
f 12/106/31 56/86/31 54/88/31
f 60/84/31 58/85/31 8/107/31
f 48/92/31 46/94/31 20/104/31
f 28/103/31 26/97/31 40/96/31
f 16/105/31 14/90/31 52/89/31
f 56/86/31 12/106/31 10/87/31
f 62/69/32 64/71/32 63/70/32
f 64/71/33 2/1/33 1/3/33
f 63/108/34 1/109/34 3/110/34
f 3/110/34 5/111/34 63/108/34
f 7/112/34 9/113/34 57/114/34
f 11/115/34 53/116/34 55/117/34
f 15/118/34 17/119/34 49/120/34
f 19/121/34 21/73/34 47/122/34
f 23/123/34 25/124/34 41/125/34
f 27/126/34 29/127/34 39/128/34
f 31/129/34 33/130/34 35/131/34
f 35/131/34 37/132/34 31/129/34
f 39/128/34 41/125/34 25/124/34
f 43/74/34 21/73/34 23/123/34
f 47/122/34 49/120/34 17/119/34
f 51/133/34 13/134/34 15/118/34
f 55/117/34 57/114/34 9/113/34
f 59/135/34 5/111/34 7/112/34
f 63/108/34 5/111/34 61/136/34
f 9/113/34 11/115/34 55/117/34
f 17/119/34 19/121/34 47/122/34
f 25/124/34 27/126/34 39/128/34
f 31/129/34 37/132/34 29/127/34
f 41/125/34 43/74/34 23/123/34
f 49/120/34 51/133/34 15/118/34
f 57/114/34 59/135/34 7/112/34
f 5/111/34 59/135/34 61/136/34
f 21/73/34 45/72/34 47/122/34
f 37/132/34 39/128/34 29/127/34
f 53/116/34 13/134/34 51/133/34
f 13/134/34 53/116/34 11/115/34
