# Blender v2.78 (sub 0) OBJ File: 'paddlefinal.blend'
# www.blender.org
mtllib right.mtl
o Cube_Cube.001
v 0.920267 0.314510 -1.433245
v 1.249543 1.145403 0.355944
v 0.712158 -1.474678 -0.564053
v 1.041433 -0.643786 1.225136
v -1.041433 0.643786 -1.225136
v -0.712158 1.474678 0.564053
v -1.249543 -1.145403 -0.355944
v -0.920267 -0.314510 1.433245
v -7.205509 1.678439 -0.571212
v -6.876234 2.509331 1.217976
v -7.413619 -0.110750 0.297980
v -7.084344 0.720142 2.087168
vt 1.0000 0.0000
vt 0.0000 1.0000
vt 0.0000 0.0000
vt 1.0000 0.0000
vt 0.0000 1.0000
vt 0.0000 0.0000
vt 0.0000 0.0000
vt 1.0000 1.0000
vt 0.0000 1.0000
vt 1.0000 1.0000
vt 0.0000 1.0000
vt 1.0000 0.0000
vt 0.0000 1.0000
vt 0.0000 0.0000
vt 0.0000 0.0000
vt 1.0000 1.0000
vt 1.0000 0.0000
vt 0.0000 1.0000
vt 1.0000 0.0000
vt 0.0000 1.0000
vt 0.0000 0.0000
vt 1.0000 0.0000
vt 0.0000 1.0000
vt 0.0000 0.0000
vt 1.0000 1.0000
vt 1.0000 1.0000
vt 1.0000 1.0000
vt 1.0000 0.0000
vt 1.0000 1.0000
vt 1.0000 1.0000
vn 0.9809 -0.1646 -0.1041
vn -0.1041 -0.8946 0.4346
vn -0.1646 -0.4154 -0.8946
vn 0.1041 0.8946 -0.4346
vn 0.1646 0.4154 0.8946
vn -0.9809 0.1646 0.1041
usemtl None
s off
f 2/1/1 3/2/1 1/3/1
f 4/4/2 7/5/2 3/6/2
f 5/7/3 11/8/3 9/9/3
f 5/7/4 2/10/4 1/11/4
f 7/12/3 1/11/3 3/6/3
f 4/4/5 6/13/5 8/14/5
f 11/15/6 10/16/6 9/9/6
f 6/17/5 12/18/5 8/14/5
f 8/19/2 11/20/2 7/21/2
f 5/22/4 10/23/4 6/24/4
f 2/1/1 4/25/1 3/2/1
f 4/4/2 8/26/2 7/5/2
f 5/7/3 7/12/3 11/8/3
f 5/7/4 6/17/4 2/10/4
f 7/12/3 5/27/3 1/11/3
f 4/4/5 2/10/5 6/13/5
f 11/15/6 12/28/6 10/16/6
f 6/17/5 10/16/5 12/18/5
f 8/19/2 12/29/2 11/20/2
f 5/22/4 9/30/4 10/23/4
