# Blender v2.78 (sub 0) OBJ File: 'saturn.blend'
# www.blender.org
mtllib saturnring.mtl
o Circle
v -9.279959 0.000000 -20.694559
v -13.138955 0.000000 -18.486488
v -16.493029 0.000000 -15.567991
v -19.213284 0.000000 -12.051227
v -21.195183 0.000000 -8.071340
v -22.362562 0.000000 -3.781274
v -22.670563 0.000000 0.654100
v -22.107346 0.000000 5.064339
v -20.694555 0.000000 9.279958
v -18.486486 0.000000 13.138954
v -15.567990 0.000000 16.493025
v -12.051224 0.000000 19.213284
v -8.071336 0.000000 21.195183
v -3.781270 0.000000 22.362564
v 0.654109 0.000000 22.670565
v 5.064350 0.000000 22.107346
v 9.279970 0.000000 20.694551
v 13.138968 0.000000 18.486479
v 16.493040 0.000000 15.567979
v 19.213297 0.000000 12.051212
v 21.195196 0.000000 8.071323
v 22.362572 0.000000 3.781256
v 22.670568 0.000000 -0.654122
v 22.107346 0.000000 -5.064363
v 20.694550 0.000000 -9.279984
v 18.486475 0.000000 -13.138978
v 15.567974 0.000000 -16.493050
v 12.051204 0.000000 -19.213303
v 8.071315 0.000000 -21.195198
v 3.781246 0.000000 -22.362574
v -0.654133 0.000000 -22.670567
v -5.064373 0.000000 -22.107340
v -11.975786 0.000000 -26.706326
v -16.955820 0.000000 -23.856810
v -21.284254 0.000000 -20.090490
v -24.794741 0.000000 -15.552106
v -27.352383 0.000000 -10.416060
v -28.858887 0.000000 -4.879732
v -29.256361 0.000000 0.844118
v -28.529526 0.000000 6.535530
v -26.706322 0.000000 11.975786
v -23.856810 0.000000 16.955820
v -20.090488 0.000000 21.284248
v -15.552103 0.000000 24.794741
v -10.416059 0.000000 27.352383
v -4.879728 0.000000 28.858887
v 0.844128 0.000000 29.256361
v 6.535543 0.000000 28.529526
v 11.975801 0.000000 26.706318
v 16.955837 0.000000 23.856798
v 21.284266 0.000000 20.090477
v 24.794754 0.000000 15.552090
v 27.352396 0.000000 10.416044
v 28.858896 0.000000 4.879713
v 29.256365 0.000000 -0.844143
v 28.529526 0.000000 -6.535558
v 26.706314 0.000000 -11.975816
v 23.856792 0.000000 -16.955849
v 20.090469 0.000000 -21.284277
v 15.552077 0.000000 -24.794767
v 10.416030 0.000000 -27.352402
v 4.879698 0.000000 -28.858900
v -0.844159 0.000000 -29.256365
v -6.535572 0.000000 -28.529522
vt 0.8433 0.6835
vt 0.9807 0.6458
vt 0.9430 0.7368
vt 0.3165 0.1567
vt 0.1813 0.1117
vt 0.2632 0.0570
vt 0.5382 0.8874
vt 0.4508 0.9999
vt 0.4618 0.8874
vt 0.8009 0.7469
vt 0.8883 0.8187
vt 0.3542 0.0193
vt 0.3870 0.1275
vt 0.3542 0.9807
vt 0.3870 0.8725
vt 0.8187 0.8883
vt 0.7469 0.8009
vt 0.4508 0.0001
vt 0.4618 0.1126
vt 0.3165 0.8433
vt 0.2632 0.9430
vt 0.7368 0.9430
vt 0.6835 0.8433
vt 0.5492 0.0001
vt 0.5382 0.1126
vt 0.1813 0.8883
vt 0.2531 0.8009
vt 0.6458 0.9807
vt 0.6130 0.8725
vt 0.6458 0.0193
vt 0.6130 0.1275
vt 0.1991 0.7469
vt 0.1117 0.8187
vt 0.5492 0.9999
vt 0.6835 0.1567
vt 0.7368 0.0570
vt 0.1567 0.6835
vt 0.0570 0.7368
vt 0.7469 0.1991
vt 0.8187 0.1117
vt 0.0193 0.6458
vt 0.1275 0.6130
vt 0.8883 0.1813
vt 0.8009 0.2531
vt 0.1126 0.5382
vt 0.0001 0.5492
vt 0.9430 0.2632
vt 0.8433 0.3165
vt 0.1126 0.4618
vt 0.0001 0.4508
vt 0.9807 0.3542
vt 0.8725 0.3870
vt 0.0193 0.3542
vt 0.1275 0.3870
vt 0.9999 0.4508
vt 0.8874 0.4618
vt 0.1567 0.3165
vt 0.0570 0.2632
vt 0.9999 0.5492
vt 0.8874 0.5382
vt 0.1991 0.2531
vt 0.1117 0.1813
vt 0.8725 0.6130
vt 0.2531 0.1991
vn 0.0000 1.0000 0.0000
usemtl None
s off
f 28/1/1 59/2/1 60/3/1
f 15/4/1 46/5/1 47/6/1
f 1/7/1 34/8/1 2/9/1
f 29/10/1 60/3/1 61/11/1
f 15/4/1 48/12/1 16/13/1
f 2/9/1 35/14/1 3/15/1
f 29/10/1 62/16/1 30/17/1
f 16/13/1 49/18/1 17/19/1
f 4/20/1 35/14/1 36/21/1
f 30/17/1 63/22/1 31/23/1
f 17/19/1 50/24/1 18/25/1
f 4/20/1 37/26/1 5/27/1
f 31/23/1 64/28/1 32/29/1
f 18/25/1 51/30/1 19/31/1
f 6/32/1 37/26/1 38/33/1
f 1/7/1 64/28/1 33/34/1
f 20/35/1 51/30/1 52/36/1
f 7/37/1 38/33/1 39/38/1
f 21/39/1 52/36/1 53/40/1
f 7/37/1 40/41/1 8/42/1
f 21/39/1 54/43/1 22/44/1
f 9/45/1 40/41/1 41/46/1
f 22/44/1 55/47/1 23/48/1
f 10/49/1 41/46/1 42/50/1
f 23/48/1 56/51/1 24/52/1
f 10/49/1 43/53/1 11/54/1
f 24/52/1 57/55/1 25/56/1
f 12/57/1 43/53/1 44/58/1
f 25/56/1 58/59/1 26/60/1
f 13/61/1 44/58/1 45/62/1
f 26/60/1 59/2/1 27/63/1
f 13/61/1 46/5/1 14/64/1
f 28/1/1 27/63/1 59/2/1
f 15/4/1 14/64/1 46/5/1
f 1/7/1 33/34/1 34/8/1
f 29/10/1 28/1/1 60/3/1
f 15/4/1 47/6/1 48/12/1
f 2/9/1 34/8/1 35/14/1
f 29/10/1 61/11/1 62/16/1
f 16/13/1 48/12/1 49/18/1
f 4/20/1 3/15/1 35/14/1
f 30/17/1 62/16/1 63/22/1
f 17/19/1 49/18/1 50/24/1
f 4/20/1 36/21/1 37/26/1
f 31/23/1 63/22/1 64/28/1
f 18/25/1 50/24/1 51/30/1
f 6/32/1 5/27/1 37/26/1
f 1/7/1 32/29/1 64/28/1
f 20/35/1 19/31/1 51/30/1
f 7/37/1 6/32/1 38/33/1
f 21/39/1 20/35/1 52/36/1
f 7/37/1 39/38/1 40/41/1
f 21/39/1 53/40/1 54/43/1
f 9/45/1 8/42/1 40/41/1
f 22/44/1 54/43/1 55/47/1
f 10/49/1 9/45/1 41/46/1
f 23/48/1 55/47/1 56/51/1
f 10/49/1 42/50/1 43/53/1
f 24/52/1 56/51/1 57/55/1
f 12/57/1 11/54/1 43/53/1
f 25/56/1 57/55/1 58/59/1
f 13/61/1 12/57/1 44/58/1
f 26/60/1 58/59/1 59/2/1
f 13/61/1 45/62/1 46/5/1
