# Blender v2.78 (sub 0) OBJ File: ''
# www.blender.org
mtllib caution.mtl
o Cylinder
v 0.000000 -0.043592 -1.000000
v 0.000000 6.766979 -1.000000
v 0.195090 -0.043592 -0.980785
v 0.195090 6.766979 -0.980785
v 0.382683 -0.043592 -0.923880
v 0.382683 6.766979 -0.923880
v 0.555570 -0.043592 -0.831470
v 0.555570 6.766979 -0.831470
v 0.707107 -0.043592 -0.707107
v 0.707107 6.766979 -0.707107
v 0.831470 -0.043592 -0.555570
v 0.831470 6.766979 -0.555570
v 0.923880 -0.043592 -0.382683
v 0.923880 6.766979 -0.382683
v 0.980785 -0.043592 -0.195090
v 0.980785 6.766979 -0.195090
v 1.000000 -0.043592 -0.000000
v 1.000000 6.766979 -0.000000
v 0.980785 -0.043592 0.195090
v 0.980785 6.766979 0.195090
v 0.923880 -0.043592 0.382683
v 0.923880 6.766979 0.382683
v 0.831470 -0.043592 0.555570
v 0.831470 6.766979 0.555570
v 0.707107 -0.043592 0.707107
v 0.707107 6.766979 0.707107
v 0.555570 -0.043592 0.831470
v 0.555570 6.766979 0.831470
v 0.382683 -0.043592 0.923880
v 0.382683 6.766979 0.923880
v 0.195090 -0.043592 0.980785
v 0.195090 6.766979 0.980785
v -0.000000 -0.043592 1.000000
v -0.000000 6.766979 1.000000
v -0.195091 -0.043592 0.980785
v -0.195091 6.766979 0.980785
v -0.382684 -0.043592 0.923879
v -0.382684 6.766979 0.923879
v -0.555571 -0.043592 0.831469
v -0.555571 6.766979 0.831469
v -0.707107 -0.043592 0.707106
v -0.707107 6.766979 0.707106
v -0.831470 -0.043592 0.555570
v -0.831470 6.766979 0.555570
v -0.923880 -0.043592 0.382683
v -0.923880 6.766979 0.382683
v -0.980785 -0.043592 0.195089
v -0.980785 6.766979 0.195089
v -1.000000 -0.043592 -0.000001
v -1.000000 6.766979 -0.000001
v -0.980785 -0.043592 -0.195091
v -0.980785 6.766979 -0.195091
v -0.923879 -0.043592 -0.382684
v -0.923879 6.766979 -0.382684
v -0.831469 -0.043592 -0.555571
v -0.831469 6.766979 -0.555571
v -0.707106 -0.043592 -0.707108
v -0.707106 6.766979 -0.707108
v -0.555569 -0.043592 -0.831470
v -0.555569 6.766979 -0.831470
v -0.382682 -0.043592 -0.923880
v -0.382682 6.766979 -0.923880
v -0.195089 -0.043592 -0.980786
v -0.195089 6.766979 -0.980786
vt 0.7755 0.4815
vt 0.4396 0.4815
vt 0.4396 0.4398
vt 0.7755 0.4398
vt 0.4396 0.4005
vt 0.7755 0.4005
vt 0.4396 0.3652
vt 0.7755 0.3652
vt 0.4396 0.3352
vt 0.7755 0.3352
vt 0.4396 0.3051
vt 0.7755 0.3051
vt 0.4396 0.2698
vt 0.7755 0.2698
vt 0.4396 0.2305
vt 0.7755 0.2305
vt 0.4396 0.1888
vt 0.7755 0.1888
vt 0.4396 0.1463
vt 0.7755 0.1463
vt 0.4396 0.1046
vt 0.7755 0.1046
vt 0.4396 0.0654
vt 0.7755 0.0654
vt 0.4396 0.0300
vt 0.7755 0.0300
vt 0.4396 0.0000
vt 0.7755 0.0000
vt 0.4396 1.0000
vt 0.4396 0.6703
vt 0.4756 0.6703
vt 0.4756 1.0000
vt 0.5156 0.6703
vt 0.5156 1.0000
vt 0.5580 0.6703
vt 0.5580 1.0000
vt 0.6013 0.6703
vt 0.6013 1.0000
vt 0.6438 0.6703
vt 0.6438 1.0000
vt 0.6838 0.6703
vt 0.6838 1.0000
vt 0.7198 0.6703
vt 0.7198 1.0000
vt 1.0000 0.6703
vt 1.0000 1.0000
vt 0.9640 1.0000
vt 0.9640 0.6703
vt 0.9240 1.0000
vt 0.9240 0.6703
vt 0.8815 1.0000
vt 0.8815 0.6703
vt 0.8382 1.0000
vt 0.8382 0.6703
vt 0.7958 1.0000
vt 0.7958 0.6703
vt 0.7558 1.0000
vt 0.7558 0.6703
vt 0.7198 1.0000
vt 0.7198 0.6703
vt 0.7755 0.6703
vt 0.4396 0.6703
vt 0.4396 0.6403
vt 0.7755 0.6403
vt 0.4396 0.6049
vt 0.7755 0.6049
vt 0.4396 0.5657
vt 0.7755 0.5657
vt 0.1981 0.8630
vt 0.1557 0.8547
vt 0.1157 0.8384
vt 0.0797 0.8148
vt 0.0491 0.7847
vt 0.0250 0.7494
vt 0.0084 0.7101
vt 0.0000 0.6685
vt 0.0000 0.6260
vt 0.0084 0.5843
vt 0.0250 0.5450
vt 0.0491 0.5097
vt 0.0797 0.4796
vt 0.1157 0.4560
vt 0.1557 0.4398
vt 0.1981 0.4315
vt 0.2414 0.4315
vt 0.2839 0.4398
vt 0.3239 0.4560
vt 0.3599 0.4796
vt 0.3905 0.5097
vt 0.4146 0.5450
vt 0.4311 0.5843
vt 0.4396 0.6260
vt 0.4396 0.6685
vt 0.4311 0.7101
vt 0.4146 0.7494
vt 0.3905 0.7847
vt 0.3599 0.8148
vt 0.3239 0.8384
vt 0.2839 0.8547
vt 0.2414 0.8630
vt 0.4396 0.5240
vt 0.7755 0.5240
vt 0.0000 0.2370
vt 0.0000 0.1945
vt 0.0084 0.1528
vt 0.0250 0.1135
vt 0.0491 0.0782
vt 0.0797 0.0482
vt 0.1157 0.0246
vt 0.1557 0.0083
vt 0.1981 0.0000
vt 0.2414 0.0000
vt 0.2839 0.0083
vt 0.3239 0.0246
vt 0.3599 0.0482
vt 0.3905 0.0782
vt 0.4146 0.1135
vt 0.4311 0.1528
vt 0.4396 0.1945
vt 0.4396 0.2370
vt 0.4311 0.2787
vt 0.4146 0.3179
vt 0.3905 0.3533
vt 0.3599 0.3833
vt 0.3239 0.4069
vt 0.2839 0.4232
vt 0.2414 0.4315
vt 0.1981 0.4315
vt 0.1557 0.4232
vt 0.1157 0.4069
vt 0.0797 0.3833
vt 0.0491 0.3533
vt 0.0250 0.3179
vt 0.0084 0.2787
vn 0.0980 0.0000 -0.9952
vn 0.2903 0.0000 -0.9569
vn 0.4714 0.0000 -0.8819
vn 0.6344 0.0000 -0.7730
vn 0.7730 0.0000 -0.6344
vn 0.8819 0.0000 -0.4714
vn 0.9569 0.0000 -0.2903
vn 0.9952 0.0000 -0.0980
vn 0.9952 0.0000 0.0980
vn 0.9569 0.0000 0.2903
vn 0.8819 0.0000 0.4714
vn 0.7730 0.0000 0.6344
vn 0.6344 0.0000 0.7730
vn 0.4714 0.0000 0.8819
vn 0.2903 0.0000 0.9569
vn 0.0980 0.0000 0.9952
vn -0.0980 0.0000 0.9952
vn -0.2903 0.0000 0.9569
vn -0.4714 0.0000 0.8819
vn -0.6344 0.0000 0.7730
vn -0.7730 0.0000 0.6344
vn -0.8819 0.0000 0.4714
vn -0.9569 0.0000 0.2903
vn -0.9952 0.0000 0.0980
vn -0.9952 0.0000 -0.0980
vn -0.9569 0.0000 -0.2903
vn -0.8819 0.0000 -0.4714
vn -0.7730 0.0000 -0.6344
vn -0.6344 0.0000 -0.7730
vn -0.4714 0.0000 -0.8819
vn 0.0000 1.0000 -0.0000
vn -0.2903 0.0000 -0.9569
vn -0.0980 0.0000 -0.9952
vn 0.0000 -1.0000 0.0000
usemtl None
s off
f 1/1/1 2/2/1 4/3/1 3/4/1
f 3/4/2 4/3/2 6/5/2 5/6/2
f 5/6/3 6/5/3 8/7/3 7/8/3
f 7/8/4 8/7/4 10/9/4 9/10/4
f 9/10/5 10/9/5 12/11/5 11/12/5
f 11/12/6 12/11/6 14/13/6 13/14/6
f 13/14/7 14/13/7 16/15/7 15/16/7
f 15/16/8 16/15/8 18/17/8 17/18/8
f 17/18/9 18/17/9 20/19/9 19/20/9
f 19/20/10 20/19/10 22/21/10 21/22/10
f 21/22/11 22/21/11 24/23/11 23/24/11
f 23/24/12 24/23/12 26/25/12 25/26/12
f 25/26/13 26/25/13 28/27/13 27/28/13
f 27/29/14 28/30/14 30/31/14 29/32/14
f 29/32/15 30/31/15 32/33/15 31/34/15
f 31/34/16 32/33/16 34/35/16 33/36/16
f 33/36/17 34/35/17 36/37/17 35/38/17
f 35/38/18 36/37/18 38/39/18 37/40/18
f 37/40/19 38/39/19 40/41/19 39/42/19
f 39/42/20 40/41/20 42/43/20 41/44/20
f 41/45/21 42/46/21 44/47/21 43/48/21
f 43/48/22 44/47/22 46/49/22 45/50/22
f 45/50/23 46/49/23 48/51/23 47/52/23
f 47/52/24 48/51/24 50/53/24 49/54/24
f 49/54/25 50/53/25 52/55/25 51/56/25
f 51/56/26 52/55/26 54/57/26 53/58/26
f 53/58/27 54/57/27 56/59/27 55/60/27
f 55/61/28 56/62/28 58/63/28 57/64/28
f 57/64/29 58/63/29 60/65/29 59/66/29
f 59/66/30 60/65/30 62/67/30 61/68/30
f 4/69/31 2/70/31 64/71/31 62/72/31 60/73/31 58/74/31 56/75/31 54/76/31 52/77/31 50/78/31 48/79/31 46/80/31 44/81/31 42/82/31 40/83/31 38/84/31 36/85/31 34/86/31 32/87/31 30/88/31 28/89/31 26/90/31 24/91/31 22/92/31 20/93/31 18/94/31 16/95/31 14/96/31 12/97/31 10/98/31 8/99/31 6/100/31
f 61/68/32 62/67/32 64/101/32 63/102/32
f 63/102/33 64/101/33 2/2/33 1/1/33
f 1/103/34 3/104/34 5/105/34 7/106/34 9/107/34 11/108/34 13/109/34 15/110/34 17/111/34 19/112/34 21/113/34 23/114/34 25/115/34 27/116/34 29/117/34 31/118/34 33/119/34 35/120/34 37/121/34 39/122/34 41/123/34 43/124/34 45/125/34 47/126/34 49/127/34 51/128/34 53/129/34 55/130/34 57/131/34 59/132/34 61/133/34 63/134/34
