# Blender v2.78 (sub 0) OBJ File: 'untitled.blend'
# www.blender.org
mtllib diamondfloor.mtl
o Cube
v -41.875824 -2.112067 1.156257
v -0.658487 -2.112067 -40.061073
v 41.875820 -2.112067 2.473247
v 0.658481 -2.112067 43.690575
v -41.875820 0.098987 1.156245
v -0.658470 0.098987 -40.061077
v 41.875816 0.098987 2.473250
v 0.658487 0.098987 43.690571
v 9.975090 -2.112067 -29.427490
v 10.962820 0.098987 33.386242
v 9.975101 0.098987 -29.427494
v 31.571484 0.098987 12.777580
v -31.571480 0.098987 -9.148087
v 31.571484 -2.112067 12.777579
v -31.571487 -2.112067 -9.148075
v 10.962816 -2.112067 33.386242
v -10.962808 0.098987 -29.756748
v 31.242243 -2.112067 -8.160333
v 31.242245 0.098987 -8.160332
v -10.962821 -2.112067 -29.756739
v -31.242245 -2.112067 11.789837
v -9.975089 0.098987 33.056988
v -31.242243 0.098987 11.789825
v -9.975095 -2.112067 33.056995
v -0.329245 -2.112067 -19.123161
v -20.937914 -2.112067 1.485505
v 0.329239 -2.112067 22.752663
v 0.329245 0.098987 22.752659
v -20.937904 0.098987 1.485495
v -0.329233 0.098987 -19.123167
v 20.937912 0.098987 2.143999
v 20.937906 -2.112067 2.143998
vt 0.6542 0.2461
vt 0.5649 0.5000
vt 0.5649 0.2461
vt 0.3863 0.4921
vt 0.4756 0.6191
vt 0.3863 0.6191
vt 0.4756 0.3691
vt 0.4756 0.4921
vt 0.3863 0.1230
vt 0.4756 0.1230
vt 0.3863 0.0000
vt 0.2970 0.1270
vt 0.3863 0.1270
vt 0.3863 0.3809
vt 0.2970 0.3809
vt 0.2970 0.5079
vt 0.3863 0.5079
vt 0.2970 0.6309
vt 0.2970 0.8770
vt 0.3863 0.6309
vt 0.3863 0.8770
vt 0.4756 0.8730
vt 0.3863 1.0000
vt 0.3863 0.8730
vt 0.2970 1.0000
vt 1.0000 0.1138
vt 0.8860 0.1302
vt 0.8860 0.0000
vt 0.8860 0.2604
vt 0.7719 0.1138
vt 0.8860 0.0000
vt 0.1782 0.8771
vt 0.2970 0.8729
vt 0.2376 1.0000
vt 0.5649 0.2539
vt 0.4756 0.0000
vt 0.5649 0.0000
vt 0.6542 0.0000
vt 0.4756 0.5000
vt 0.4756 0.2539
vt 0.0594 0.6312
vt 0.0594 0.3812
vt 0.1188 0.5041
vt 0.2376 0.7500
vt 0.1782 0.1271
vt 0.2376 0.2500
vt 0.2970 0.1229
vt 0.7719 0.1174
vt 0.6542 0.2523
vt 0.6542 0.0000
vt 0.6542 0.5000
vt 0.3863 0.3691
vt 0.4756 0.0000
vt 0.2970 0.0000
vt 0.4756 1.0000
vt 1.0000 0.2440
vt 0.7719 0.3742
vt 0.0000 0.5083
vt 0.2376 0.0000
vt 0.7719 0.3698
vn 0.7071 -0.0000 -0.7071
vn 0.7071 0.0000 0.7071
vn -0.7071 0.0000 0.7071
vn -0.7071 -0.0000 -0.7071
vn 0.0000 1.0000 0.0000
vn 0.0000 -1.0000 0.0000
usemtl Material
s off
f 32/1/1 30/2/1 31/3/1
f 7/4/1 18/5/1 19/6/1
f 7/4/2 14/7/2 3/8/2
f 14/7/2 10/9/2 16/10/2
f 8/11/2 16/10/2 10/9/2
f 24/12/3 8/11/3 22/13/3
f 24/12/3 23/14/3 21/15/3
f 23/14/3 1/16/3 21/15/3
f 5/17/4 15/18/4 1/16/4
f 20/19/4 13/20/4 17/21/4
f 9/22/1 6/23/1 11/24/1
f 2/25/4 17/21/4 6/23/4
f 18/5/1 11/24/1 19/6/1
f 31/26/5 7/27/5 19/28/5
f 30/29/6 19/30/6 31/31/6
f 17/32/5 11/33/5 6/34/5
f 29/35/3 27/36/3 28/37/3
f 32/1/2 28/37/2 27/38/2
f 29/35/4 25/39/4 26/40/4
f 13/41/5 23/42/5 29/43/5
f 17/32/5 29/43/5 30/44/5
f 29/43/5 22/45/5 28/46/5
f 22/45/5 10/47/5 28/46/5
f 12/48/6 28/49/6 31/50/6
f 32/1/1 25/51/1 30/2/1
f 7/4/1 3/8/1 18/5/1
f 7/4/2 12/52/2 14/7/2
f 14/7/2 12/52/2 10/9/2
f 8/11/2 4/53/2 16/10/2
f 24/12/3 4/54/3 8/11/3
f 24/12/3 22/13/3 23/14/3
f 23/14/3 5/17/3 1/16/3
f 5/17/4 13/20/4 15/18/4
f 20/19/4 15/18/4 13/20/4
f 9/22/1 2/55/1 6/23/1
f 2/25/4 20/19/4 17/21/4
f 18/5/1 9/22/1 11/24/1
f 31/26/5 12/56/5 7/27/5
f 30/29/6 11/57/6 19/30/6
f 17/32/5 30/44/5 11/33/5
f 29/35/3 26/40/3 27/36/3
f 32/1/2 31/3/2 28/37/2
f 29/35/4 30/2/4 25/39/4
f 13/41/5 5/58/5 23/42/5
f 17/32/5 13/41/5 29/43/5
f 29/43/5 23/42/5 22/45/5
f 22/45/5 8/59/5 10/47/5
f 12/48/6 10/60/6 28/49/6
