# Blender v2.78 (sub 0) OBJ File: 'untitled.blend'
# www.blender.org
mtllib jumpfloor.mtl
o Cube
v 13.593130 0.098987 100.558449
v 13.593132 0.098987 93.162048
v 13.593133 0.098987 85.765640
v 13.593132 0.098987 78.369240
v 13.593132 0.098987 70.972839
v 13.593132 0.098987 63.576431
v 13.593133 0.098987 56.180031
v 13.593133 0.098987 48.783627
v 13.593133 0.098987 41.387222
v 13.593132 0.098987 33.990822
v 13.593134 0.098987 26.594418
v 13.593134 0.098987 19.198013
v 13.593133 0.098987 11.801609
v 13.593134 0.098987 4.405209
v -13.593126 0.098987 100.558441
v -13.593126 0.098987 93.162033
v -13.593126 0.098987 85.765625
v -13.593125 0.098987 78.369225
v -13.593124 0.098987 70.972824
v -13.593125 0.098987 63.576416
v -13.593126 0.098987 56.180016
v -13.593125 0.098987 48.783607
v -13.593125 0.098987 41.387203
v -13.593127 0.098987 33.990799
v -13.593127 0.098987 26.594395
v -13.593127 0.098987 19.197990
v -13.593128 0.098987 11.801586
v -13.593128 0.098987 4.405182
v 13.593133 -2.112067 100.558441
v 13.593133 -2.112067 93.162041
v 13.593133 -2.112067 85.765633
v 13.593134 -2.112067 78.369232
v 13.593134 -2.112067 70.972824
v 13.593132 -2.112067 63.576424
v 13.593131 -2.112067 56.180019
v 13.593131 -2.112067 48.783615
v 13.593131 -2.112067 41.387215
v 13.593129 -2.112067 33.990807
v 13.593129 -2.112067 26.594406
v 13.593129 -2.112067 19.198002
v 13.593128 -2.112067 11.801598
v 13.593128 -2.112067 4.405193
v -13.593133 -2.112067 100.558441
v -13.593131 -2.112067 93.162033
v -13.593129 -2.112067 85.765633
v -13.593130 -2.112067 78.369232
v -13.593130 -2.112067 70.972824
v -13.593130 -2.112067 63.576424
v -13.593131 -2.112067 56.180019
v -13.593131 -2.112067 48.783615
v -13.593131 -2.112067 41.387215
v -13.593134 -2.112067 33.990810
v -13.593134 -2.112067 26.594406
v -13.593134 -2.112067 19.198002
v -13.593135 -2.112067 11.801598
v -13.593135 -2.112067 4.405193
v -13.593125 0.098987 107.954842
v 13.593133 0.098987 107.954849
v 13.593134 0.098987 -2.991199
v -13.593130 0.098987 -2.991222
v -13.593130 -2.112067 107.954834
v 13.593134 -2.112067 107.954842
v 13.593126 -2.112067 -2.991207
v -13.593137 -2.112067 -2.991207
vt 0.7494 0.6055
vt 0.8329 0.9083
vt 0.7494 0.9083
vt 0.0937 0.3028
vt 0.0000 0.0000
vt 0.0937 0.0000
vt 0.2607 0.9083
vt 0.3443 0.6055
vt 0.3443 0.9083
vt 0.1874 0.3028
vt 0.0937 0.0000
vt 0.1874 0.0000
vt 0.8329 0.6055
vt 0.9165 0.9083
vt 0.8329 0.9083
vt 0.3747 0.3028
vt 0.2810 0.0000
vt 0.3747 0.0000
vt 0.8329 0.6055
vt 0.9165 0.3028
vt 0.9165 0.6055
vt 0.2810 0.6055
vt 0.1874 0.3028
vt 0.2810 0.3028
vt 0.1772 0.6055
vt 0.2607 0.9083
vt 0.1772 0.9083
vt 0.2810 0.3028
vt 0.3747 0.6055
vt 0.2810 0.6055
vt 0.0937 0.9083
vt 0.1772 0.6055
vt 0.1772 0.9083
vt 0.7494 0.3028
vt 0.6557 0.0000
vt 0.7494 0.0000
vt 0.9165 0.0000
vt 1.0000 0.3028
vt 0.9165 0.3028
vt 0.5621 0.0000
vt 0.6557 0.3028
vt 0.5621 0.3028
vt 0.0000 0.9083
vt 0.0835 0.6055
vt 0.0835 0.9083
vt 0.4684 0.0000
vt 0.3747 0.3028
vt 0.3747 0.0000
vt 0.5948 0.9083
vt 0.5113 0.6055
vt 0.5948 0.6055
vt 0.0937 0.3028
vt 0.0000 0.6055
vt 0.0000 0.3028
vt 0.3443 0.9083
vt 0.4278 0.6055
vt 0.4278 0.9083
vt 0.1874 0.3028
vt 0.0937 0.6055
vt 0.0937 0.3028
vt 0.5113 0.9083
vt 0.4278 0.6055
vt 0.5113 0.6055
vt 0.1874 0.3028
vt 0.2810 0.0000
vt 0.2810 0.3028
vt 0.8329 0.3028
vt 0.9165 0.0000
vt 0.9165 0.3028
vt 0.6557 0.3028
vt 0.5621 0.6055
vt 0.5621 0.3028
vt 0.6784 0.9083
vt 0.5948 0.6055
vt 0.6784 0.6055
vt 0.4684 0.3028
vt 0.5621 0.0000
vt 0.5621 0.3028
vt 0.5621 0.3028
vt 0.4684 0.6055
vt 0.4684 0.3028
vt 0.0937 1.0000
vt 0.1772 0.9083
vt 0.1772 1.0000
vt 0.0000 1.0000
vt 0.0835 0.9083
vt 0.0835 1.0000
vt 0.1772 1.0000
vt 0.2607 0.9083
vt 0.2607 1.0000
vt 0.2607 1.0000
vt 0.3443 0.9083
vt 0.3443 1.0000
vt 0.9165 0.5779
vt 1.0000 0.4862
vt 1.0000 0.5779
vt 0.9165 0.6696
vt 1.0000 0.5779
vt 1.0000 0.6696
vt 0.9165 0.7613
vt 1.0000 0.6696
vt 1.0000 0.7613
vt 0.8329 0.9083
vt 0.7494 1.0000
vt 0.7494 0.9083
vt 0.5948 0.9083
vt 0.5113 1.0000
vt 0.5113 0.9083
vt 0.5113 0.9083
vt 0.4278 1.0000
vt 0.4278 0.9083
vt 1.0000 0.7613
vt 0.9165 0.8530
vt 0.9165 0.7613
vt 1.0000 0.3945
vt 0.9165 0.4862
vt 0.9165 0.3945
vt 1.0000 0.8530
vt 0.9165 0.9447
vt 0.9165 0.8530
vt 1.0000 0.3028
vt 0.9165 0.3945
vt 0.9165 0.3028
vt 0.4278 1.0000
vt 0.3443 0.9083
vt 0.4278 0.9083
vt 0.8329 0.6055
vt 0.7494 0.3028
vt 0.8329 0.3028
vt 0.6784 0.9083
vt 0.5948 1.0000
vt 0.5948 0.9083
vt 0.7494 0.3028
vt 0.8329 0.0000
vt 0.8329 0.3028
vt 0.6557 0.6055
vt 0.6557 0.3028
vt 0.4684 0.6055
vt 0.3747 0.3028
vt 0.4684 0.3028
vt 0.8329 0.6055
vt 0.0000 0.3028
vt 0.2607 0.6055
vt 0.0937 0.3028
vt 0.9165 0.6055
vt 0.2810 0.3028
vt 0.8329 0.3028
vt 0.1874 0.6055
vt 0.2607 0.6055
vt 0.3747 0.3028
vt 0.0937 0.6055
vt 0.6557 0.3028
vt 1.0000 0.0000
vt 0.6557 0.0000
vt 0.0000 0.6055
vt 0.4684 0.3028
vt 0.5113 0.9083
vt 0.0937 0.6055
vt 0.3443 0.6055
vt 0.1874 0.6055
vt 0.4278 0.9083
vt 0.1874 0.0000
vt 0.8329 0.0000
vt 0.6557 0.6055
vt 0.5948 0.9083
vt 0.4684 0.0000
vt 0.5621 0.6055
vt 0.0937 0.9083
vt 0.0000 0.9083
vt 0.1772 0.9083
vt 0.2607 0.9083
vt 0.9165 0.4862
vt 0.9165 0.5779
vt 0.9165 0.6696
vt 0.8329 1.0000
vt 0.5948 1.0000
vt 0.5113 1.0000
vt 1.0000 0.8530
vt 1.0000 0.4862
vt 1.0000 0.9447
vt 1.0000 0.3945
vt 0.3443 1.0000
vt 0.7494 0.6055
vt 0.6784 1.0000
vt 0.7494 0.0000
vt 0.3747 0.6055
vn 0.0000 0.0000 1.0000
vn 0.0000 -1.0000 0.0000
vn 0.0000 -0.0000 -1.0000
vn 0.0000 1.0000 0.0000
vn 1.0000 0.0000 0.0000
vn -1.0000 0.0000 0.0000
usemtl Material
s off
f 38/1/1 24/2/1 52/3/1
f 31/4/2 44/5/2 45/6/2
f 25/7/3 39/8/3 53/9/3
f 33/10/2 46/11/2 47/12/2
f 40/13/1 26/14/1 54/15/1
f 35/16/2 48/17/2 49/18/2
f 27/19/3 41/20/3 55/21/3
f 37/22/2 50/23/2 51/24/2
f 42/25/1 28/26/1 56/27/1
f 39/28/2 52/29/2 53/30/2
f 23/31/3 37/32/3 51/33/3
f 41/34/2 54/35/2 55/36/2
f 36/37/1 22/38/1 50/39/1
f 63/40/2 56/41/2 64/42/2
f 21/43/3 35/44/3 49/45/3
f 16/46/4 3/47/4 17/48/4
f 34/49/1 20/50/1 48/51/1
f 18/52/4 5/53/4 19/54/4
f 19/55/3 33/56/3 47/57/3
f 20/58/4 7/59/4 21/60/4
f 32/61/1 18/62/1 46/63/1
f 22/64/4 9/65/4 23/66/4
f 17/67/3 31/68/3 45/69/3
f 24/70/4 11/71/4 25/72/4
f 30/73/1 16/74/1 44/75/1
f 26/76/4 13/77/4 27/78/4
f 28/79/4 59/80/4 60/81/4
f 3/82/5 30/83/5 31/84/5
f 5/85/5 32/86/5 33/87/5
f 7/88/5 34/89/5 35/90/5
f 9/91/5 36/92/5 37/93/5
f 11/94/5 38/95/5 39/96/5
f 13/97/5 40/98/5 41/99/5
f 59/100/5 42/101/5 63/102/5
f 45/103/6 16/104/6 17/105/6
f 47/106/6 18/107/6 19/108/6
f 49/109/6 20/110/6 21/111/6
f 51/112/6 22/113/6 23/114/6
f 53/115/6 24/116/6 25/117/6
f 55/118/6 26/119/6 27/120/6
f 64/121/6 28/122/6 60/123/6
f 15/124/6 61/125/6 57/126/6
f 62/127/1 57/128/1 61/129/1
f 1/130/5 62/131/5 29/132/5
f 60/133/3 63/134/3 64/135/3
f 57/128/4 1/136/4 15/137/4
f 29/138/2 61/139/2 43/140/2
f 38/1/1 10/141/1 24/2/1
f 31/4/2 30/142/2 44/5/2
f 25/7/3 11/143/3 39/8/3
f 33/10/2 32/144/2 46/11/2
f 40/13/1 12/145/1 26/14/1
f 35/16/2 34/146/2 48/17/2
f 27/19/3 13/147/3 41/20/3
f 37/22/2 36/148/2 50/23/2
f 42/25/1 14/149/1 28/26/1
f 39/28/2 38/150/2 52/29/2
f 23/31/3 9/151/3 37/32/3
f 41/34/2 40/152/2 54/35/2
f 36/37/1 8/153/1 22/38/1
f 63/40/2 42/154/2 56/41/2
f 21/43/3 7/155/3 35/44/3
f 16/46/4 2/156/4 3/47/4
f 34/49/1 6/157/1 20/50/1
f 18/52/4 4/158/4 5/53/4
f 19/55/3 5/159/3 33/56/3
f 20/58/4 6/160/4 7/59/4
f 32/61/1 4/161/1 18/62/1
f 22/64/4 8/162/4 9/65/4
f 17/67/3 3/163/3 31/68/3
f 24/70/4 10/164/4 11/71/4
f 30/73/1 2/165/1 16/74/1
f 26/76/4 12/166/4 13/77/4
f 28/79/4 14/167/4 59/80/4
f 3/82/5 2/168/5 30/83/5
f 5/85/5 4/169/5 32/86/5
f 7/88/5 6/170/5 34/89/5
f 9/91/5 8/171/5 36/92/5
f 11/94/5 10/172/5 38/95/5
f 13/97/5 12/173/5 40/98/5
f 59/100/5 14/174/5 42/101/5
f 45/103/6 44/175/6 16/104/6
f 47/106/6 46/176/6 18/107/6
f 49/109/6 48/177/6 20/110/6
f 51/112/6 50/178/6 22/113/6
f 53/115/6 52/179/6 24/116/6
f 55/118/6 54/180/6 26/119/6
f 64/121/6 56/181/6 28/122/6
f 15/124/6 43/182/6 61/125/6
f 62/127/1 58/183/1 57/128/1
f 1/130/5 58/184/5 62/131/5
f 60/133/3 59/185/3 63/134/3
f 57/128/4 58/183/4 1/136/4
f 29/138/2 62/186/2 61/139/2
