# Blender v2.78 (sub 0) OBJ File: ''
# www.blender.org
mtllib rectanglefloor.mtl
o Cube
v 102.369873 -2.112067 -13.593131
v 102.369873 -2.112067 13.593131
v -115.516754 -2.112067 13.593128
v -115.516747 -2.112067 -13.593136
v 102.369896 0.098987 -13.593125
v 102.369850 0.098987 13.593140
v -115.516769 0.098987 13.593126
v -115.516754 0.098987 -13.593131
vt 1.0000 0.0000
vt 0.0000 1.0000
vt 0.0000 0.0000
vt 1.0000 0.0000
vt 0.0000 1.0000
vt 0.0000 0.0000
vt 1.0000 0.0000
vt 0.0000 1.0000
vt 1.0000 0.0000
vt 0.0000 1.0000
vt 0.0000 0.0000
vt 1.0000 0.0000
vt 0.0000 0.0000
vt 1.0000 0.0000
vt 0.0000 1.0000
vt 1.0000 1.0000
vt 1.0000 1.0000
vt 1.0000 1.0000
vt 1.0000 1.0000
vt 1.0000 1.0000
vn 0.0000 -1.0000 0.0000
vn 0.0000 1.0000 0.0000
vn 1.0000 -0.0000 0.0000
vn -0.0000 -0.0000 1.0000
vn -1.0000 0.0000 -0.0000
vn 0.0000 0.0000 -1.0000
usemtl Material
s off
f 2/1/1 4/2/1 1/3/1
f 8/4/2 6/5/2 5/6/2
f 5/7/3 2/8/3 1/3/3
f 6/9/4 3/10/4 2/11/4
f 7/12/5 4/2/5 3/13/5
f 1/14/6 8/15/6 5/6/6
f 2/1/1 3/16/1 4/2/1
f 8/4/2 7/17/2 6/5/2
f 5/7/3 6/18/3 2/8/3
f 6/9/4 7/17/4 3/10/4
f 7/12/5 8/19/5 4/2/5
f 1/14/6 4/20/6 8/15/6
