# Blender v2.78 (sub 0) OBJ File: ''
# www.blender.org
mtllib rectanglefloor.mtl
o Cube
v 17.476160 -2.112067 -4.093748
v 17.476160 -2.112067 4.093748
v -19.720541 -2.112067 4.093747
v -19.720539 -2.112067 -4.093749
v 17.476164 0.098987 -4.093746
v 17.476156 0.098987 4.093750
v -19.720543 0.098987 4.093746
v -19.720541 0.098987 -4.093748
vt 0.0000 0.0000
vt 1.0000 1.0000
vt 0.0000 1.0000
vt 1.0000 0.0000
vt 0.0000 1.0000
vt 0.0000 0.0000
vt 1.0000 0.0000
vt 0.0000 1.0000
vt 1.0000 0.0000
vt 0.0000 1.0000
vt 0.0000 0.0000
vt 1.0000 0.0000
vt 0.0000 0.0000
vt 1.0000 0.0000
vt 0.0000 1.0000
vt 1.0000 0.0000
vt 1.0000 1.0000
vt 1.0000 1.0000
vt 1.0000 1.0000
vt 1.0000 1.0000
vn 0.0000 -1.0000 0.0000
vn 0.0000 1.0000 -0.0000
vn 1.0000 0.0000 0.0000
vn -0.0000 -0.0000 1.0000
vn -1.0000 -0.0000 -0.0000
vn 0.0000 0.0000 -1.0000
usemtl Material
s off
f 1/1/1 3/2/1 4/3/1
f 8/4/2 6/5/2 5/6/2
f 5/7/3 2/8/3 1/1/3
f 6/9/4 3/10/4 2/11/4
f 7/12/5 4/3/5 3/13/5
f 1/14/6 8/15/6 5/6/6
f 1/1/1 2/16/1 3/2/1
f 8/4/2 7/17/2 6/5/2
f 5/7/3 6/18/3 2/8/3
f 6/9/4 7/17/4 3/10/4
f 7/12/5 8/19/5 4/3/5
f 1/14/6 4/20/6 8/15/6
