# Blender v2.78 (sub 0) OBJ File: ''
# www.blender.org
mtllib board.mtl
o Cube
v 13.007713 -1.000000 14.278235
v 13.007713 -1.000000 -14.278235
v -13.007715 -1.000000 -14.278232
v -13.007708 -1.000000 14.278240
v 13.007719 -0.567137 14.278229
v 13.007706 -0.567137 -14.278244
v -13.007718 -0.567137 -14.278231
v -13.007711 -0.567137 14.278235
vt 0.9376 0.0000
vt 0.9376 1.0000
vt 0.0000 1.0000
vt 0.0000 0.0000
vt 0.9532 1.0000
vt 0.9376 1.0000
vt 0.9376 0.0000
vt 0.9532 0.0000
vt 0.9844 0.9110
vt 0.9688 0.9110
vt 0.9688 0.0000
vt 0.9844 0.0000
vt 0.9688 1.0000
vt 0.9532 1.0000
vt 0.9532 0.0000
vt 0.9688 0.0000
vt 0.9844 0.0000
vt 1.0000 0.0000
vt 1.0000 0.9110
vt 0.9844 0.9110
vn 0.0000 1.0000 0.0000
vn -1.0000 -0.0000 0.0000
vn 0.0000 0.0000 1.0000
vn 1.0000 0.0000 -0.0000
vn -0.0000 -0.0000 -1.0000
usemtl Material
s off
f 1/1/1 2/2/1 3/3/1 4/4/1
f 1/5/2 5/6/2 6/7/2 2/8/2
f 2/9/3 6/10/3 7/11/3 3/12/3
f 3/13/4 7/14/4 8/15/4 4/16/4
f 5/17/5 1/18/5 4/19/5 8/20/5
