# Blender v2.78 (sub 0) OBJ File: ''
# www.blender.org
mtllib saturnring.mtl
o Circle.003
v 7.653953 0.000004 -12.202730
v 12.759843 0.000004 -13.518045
v 9.877424 0.000005 -15.747625
v 0.415439 -0.000005 14.398516
v -3.099207 -0.000006 18.328836
v 0.536124 -0.000006 18.581282
v -5.893877 0.000004 -13.143504
v -10.768965 0.000005 -15.151911
v -8.344799 0.000004 -11.741117
v 5.126249 0.000004 -13.461470
v 6.615422 0.000005 -17.372028
v 4.150850 -0.000006 18.119654
v 3.216468 -0.000005 14.040804
v -13.518036 0.000004 -12.759849
v -10.475037 0.000004 -9.887525
v 3.099192 0.000006 -18.328835
v 2.401544 0.000005 -14.202892
v 7.606063 -0.000005 16.961700
v 5.893889 -0.000004 13.143512
v -12.202723 0.000003 -7.653960
v -15.747613 0.000004 -9.877436
v -0.536140 0.000006 -18.581272
v -0.415450 0.000005 -14.398504
v 10.768978 -0.000005 15.151916
v 8.344812 -0.000004 11.741122
v -17.372021 0.000002 -6.615435
v -13.461465 0.000001 -5.126258
v -4.150865 0.000006 -18.119638
v -3.216478 0.000005 -14.040789
v 13.518045 -0.000004 12.759852
v 10.475047 -0.000004 9.887526
v -14.202890 0.000001 -2.401556
v -18.328831 0.000001 -3.099208
v -7.606049 0.000005 -16.961693
v 12.202734 -0.000003 7.653960
v 15.747624 -0.000004 9.877434
v -14.398507 -0.000000 0.415435
v -18.581274 -0.000000 0.536119
v 13.461476 -0.000001 5.126256
v 17.372032 -0.000002 6.615433
v -18.119646 -0.000001 4.150843
v -14.040797 -0.000001 3.216462
v 18.328838 -0.000001 3.099202
v 14.202899 -0.000001 2.401552
v -13.143507 -0.000002 5.893883
v -16.961695 -0.000003 7.606055
v 18.581278 0.000000 -0.536127
v 14.398513 0.000000 -0.415442
v -11.741120 -0.000003 8.344806
v -15.151916 -0.000004 10.768972
v 18.119650 0.000001 -4.150855
v 14.040799 0.000001 -3.216471
v -12.759852 -0.000004 13.518040
v -9.887526 -0.000004 10.475041
v 16.961693 0.000003 -7.606066
v 13.143506 0.000002 -5.893891
v -7.653960 -0.000004 12.202730
v -9.877436 -0.000005 15.747621
v 15.151907 0.000004 -10.768978
v 11.741116 0.000003 -8.344812
v -5.126257 -0.000004 13.461473
v -6.615436 -0.000005 17.372028
v 9.887521 0.000004 -10.475045
v -2.401554 -0.000005 14.202899
vt 0.8433 0.6835
vt 0.9807 0.6458
vt 0.9430 0.7368
vt 0.3165 0.1567
vt 0.1813 0.1117
vt 0.2632 0.0570
vt 0.5382 0.8874
vt 0.4508 0.9999
vt 0.4618 0.8874
vt 0.8009 0.7469
vt 0.8883 0.8187
vt 0.3542 0.0193
vt 0.3870 0.1275
vt 0.3542 0.9807
vt 0.3870 0.8725
vt 0.8187 0.8883
vt 0.7469 0.8009
vt 0.4508 0.0001
vt 0.4618 0.1126
vt 0.3165 0.8433
vt 0.2632 0.9430
vt 0.7368 0.9430
vt 0.6835 0.8433
vt 0.5492 0.0001
vt 0.5382 0.1126
vt 0.1813 0.8883
vt 0.2531 0.8009
vt 0.6458 0.9807
vt 0.6130 0.8725
vt 0.6458 0.0193
vt 0.6130 0.1275
vt 0.1991 0.7469
vt 0.1117 0.8187
vt 0.5492 0.9999
vt 0.6835 0.1567
vt 0.7368 0.0570
vt 0.1567 0.6835
vt 0.0570 0.7368
vt 0.7469 0.1991
vt 0.8187 0.1117
vt 0.0193 0.6458
vt 0.1275 0.6130
vt 0.8883 0.1813
vt 0.8009 0.2531
vt 0.1126 0.5382
vt 0.0001 0.5492
vt 0.9430 0.2632
vt 0.8433 0.3165
vt 0.1126 0.4618
vt 0.0001 0.4508
vt 0.9807 0.3542
vt 0.8725 0.3870
vt 0.0193 0.3542
vt 0.1275 0.3870
vt 0.9999 0.4508
vt 0.8874 0.4618
vt 0.1567 0.3165
vt 0.0570 0.2632
vt 0.9999 0.5492
vt 0.8874 0.5382
vt 0.1991 0.2531
vt 0.1117 0.1813
vt 0.8725 0.6130
vt 0.2531 0.1991
vn -0.0000 1.0000 0.0000
usemtl None.014
s 1
f 1/1/1 2/2/1 3/3/1
f 4/4/1 5/5/1 6/6/1
f 7/7/1 8/8/1 9/9/1
f 10/10/1 3/3/1 11/11/1
f 4/4/1 12/12/1 13/13/1
f 9/9/1 14/14/1 15/15/1
f 10/10/1 16/16/1 17/17/1
f 13/13/1 18/18/1 19/19/1
f 20/20/1 14/14/1 21/21/1
f 17/17/1 22/22/1 23/23/1
f 19/19/1 24/24/1 25/25/1
f 20/20/1 26/26/1 27/27/1
f 23/23/1 28/28/1 29/29/1
f 25/25/1 30/30/1 31/31/1
f 32/32/1 26/26/1 33/33/1
f 7/7/1 28/28/1 34/34/1
f 35/35/1 30/30/1 36/36/1
f 37/37/1 33/33/1 38/38/1
f 39/39/1 36/36/1 40/40/1
f 37/37/1 41/41/1 42/42/1
f 39/39/1 43/43/1 44/44/1
f 45/45/1 41/41/1 46/46/1
f 44/44/1 47/47/1 48/48/1
f 49/49/1 46/46/1 50/50/1
f 48/48/1 51/51/1 52/52/1
f 49/49/1 53/53/1 54/54/1
f 52/52/1 55/55/1 56/56/1
f 57/57/1 53/53/1 58/58/1
f 56/56/1 59/59/1 60/60/1
f 61/61/1 58/58/1 62/62/1
f 60/60/1 2/2/1 63/63/1
f 61/61/1 5/5/1 64/64/1
f 1/1/1 63/63/1 2/2/1
f 4/4/1 64/64/1 5/5/1
f 7/7/1 34/34/1 8/8/1
f 10/10/1 1/1/1 3/3/1
f 4/4/1 6/6/1 12/12/1
f 9/9/1 8/8/1 14/14/1
f 10/10/1 11/11/1 16/16/1
f 13/13/1 12/12/1 18/18/1
f 20/20/1 15/15/1 14/14/1
f 17/17/1 16/16/1 22/22/1
f 19/19/1 18/18/1 24/24/1
f 20/20/1 21/21/1 26/26/1
f 23/23/1 22/22/1 28/28/1
f 25/25/1 24/24/1 30/30/1
f 32/32/1 27/27/1 26/26/1
f 7/7/1 29/29/1 28/28/1
f 35/35/1 31/31/1 30/30/1
f 37/37/1 32/32/1 33/33/1
f 39/39/1 35/35/1 36/36/1
f 37/37/1 38/38/1 41/41/1
f 39/39/1 40/40/1 43/43/1
f 45/45/1 42/42/1 41/41/1
f 44/44/1 43/43/1 47/47/1
f 49/49/1 45/45/1 46/46/1
f 48/48/1 47/47/1 51/51/1
f 49/49/1 50/50/1 53/53/1
f 52/52/1 51/51/1 55/55/1
f 57/57/1 54/54/1 53/53/1
f 56/56/1 55/55/1 59/59/1
f 61/61/1 57/57/1 58/58/1
f 60/60/1 59/59/1 2/2/1
f 61/61/1 62/62/1 5/5/1
